<svg width="51" height="51" viewBox="0 0 51 51" fill="none" xmlns="http://www.w3.org/2000/svg">
<path d="M21.4372 26.2649H28.831V25.1558H21.4372V26.2649ZM25.1341 33.1597C24.1236 33.1597 23.1686 32.9656 22.269 32.5774C21.3694 32.1893 20.5838 31.6594 19.9122 30.9877C19.2406 30.3161 18.7107 29.5305 18.3225 28.631C17.9343 27.7314 17.7402 26.7763 17.7402 25.7658C17.7402 24.743 17.9343 23.7818 18.3225 22.8822C18.7107 21.9826 19.2406 21.2001 19.9122 20.5347C20.5838 19.8692 21.3694 19.3424 22.269 18.9542C23.1686 18.566 24.1236 18.3719 25.1341 18.3719C26.1569 18.3719 27.1181 18.566 28.0177 18.9542C28.9173 19.3424 29.6998 19.8692 30.3653 20.5347C31.0307 21.2001 31.5575 21.9826 31.9457 22.8822C32.3339 23.7818 32.528 24.743 32.528 25.7658C32.528 26.7763 32.3339 27.7314 31.9457 28.631C31.5575 29.5305 31.0307 30.3161 30.3653 30.9877C29.6998 31.6594 28.9173 32.1893 28.0177 32.5774C27.1181 32.9656 26.1569 33.1597 25.1341 33.1597ZM25.1341 32.0506C26.884 32.0506 28.3689 31.4375 29.5889 30.2114C30.8089 28.9852 31.4189 27.5034 31.4189 25.7658C31.4189 24.0159 30.8089 22.531 29.5889 21.311C28.3689 20.091 26.884 19.481 25.1341 19.481C23.3965 19.481 21.9147 20.091 20.6885 21.311C19.4624 22.531 18.8493 24.0159 18.8493 25.7658C18.8493 27.5034 19.4624 28.9852 20.6885 30.2114C21.9147 31.4375 23.3965 32.0506 25.1341 32.0506Z" fill="#3D3D3D"/>
</svg>
