<svg width="51" height="51" viewBox="0 0 51 51" fill="none" xmlns="http://www.w3.org/2000/svg">
<path d="M28.4818 26.7137L27.5651 25.7971C27.9262 24.8109 27.7387 23.9915 27.0026 23.3387C26.2665 22.6859 25.4679 22.5193 24.6068 22.8387L23.6901 21.9221C23.9262 21.7693 24.1901 21.6582 24.4818 21.5887C24.7734 21.5193 25.072 21.4846 25.3776 21.4846C26.3637 21.4846 27.2005 21.8283 27.888 22.5158C28.5755 23.2033 28.9193 24.0401 28.9193 25.0262C28.9193 25.3318 28.8811 25.6339 28.8047 25.9325C28.7283 26.2311 28.6207 26.4915 28.4818 26.7137ZM31.1693 29.4012L30.3359 28.5679C31.0165 28.0679 31.6102 27.5089 32.1172 26.8908C32.6241 26.2728 32.9957 25.6512 33.2318 25.0262C32.5373 23.4846 31.4957 22.2658 30.1068 21.37C28.7179 20.4741 27.2109 20.0262 25.5859 20.0262C25.0026 20.0262 24.4054 20.0818 23.7943 20.1929C23.1832 20.304 22.704 20.4359 22.3568 20.5887L21.3984 19.6096C21.8845 19.3873 22.5061 19.1929 23.263 19.0262C24.02 18.8596 24.7595 18.7762 25.4818 18.7762C27.4679 18.7762 29.2839 19.3422 30.9297 20.4741C32.5755 21.6061 33.7804 23.1234 34.5443 25.0262C34.1832 25.9151 33.7179 26.7276 33.1484 27.4637C32.579 28.1998 31.9193 28.8457 31.1693 29.4012ZM32.3776 34.1096L28.8776 30.6721C28.3915 30.8665 27.8429 31.0158 27.2318 31.12C26.6207 31.2241 26.0026 31.2762 25.3776 31.2762C23.3498 31.2762 21.5095 30.7103 19.8568 29.5783C18.204 28.4464 16.9887 26.929 16.2109 25.0262C16.4887 24.304 16.8741 23.5991 17.3672 22.9116C17.8602 22.2241 18.4609 21.5679 19.1693 20.9429L16.5443 18.3179L17.4193 17.4221L33.1901 33.1929L32.3776 34.1096ZM20.0234 21.8179C19.5095 22.1929 19.013 22.6859 18.5339 23.2971C18.0547 23.9082 17.7109 24.4846 17.5026 25.0262C18.2109 26.5679 19.2769 27.7866 20.7005 28.6825C22.1241 29.5783 23.7387 30.0262 25.5443 30.0262C26.0026 30.0262 26.454 29.9984 26.8984 29.9429C27.3429 29.8873 27.6762 29.804 27.8984 29.6929L26.5651 28.3596C26.4123 28.429 26.2248 28.4811 26.0026 28.5158C25.7804 28.5505 25.572 28.5679 25.3776 28.5679C24.4054 28.5679 23.572 28.2276 22.8776 27.5471C22.1832 26.8665 21.8359 26.0262 21.8359 25.0262C21.8359 24.8179 21.8533 24.6096 21.888 24.4012C21.9227 24.1929 21.9748 24.0054 22.0443 23.8387L20.0234 21.8179Z" fill="#BABABA"/>
</svg>
