<svg width="51" height="51" viewBox="0 0 51 51" fill="none" xmlns="http://www.w3.org/2000/svg">
<path d="M25.4132 31.6057C23.7777 31.6057 22.3925 31.0412 21.2575 29.9123C20.1225 28.7834 19.555 27.4012 19.555 25.7658C19.555 24.1304 20.1225 22.7421 21.2575 21.601C22.3925 20.4599 23.7777 19.8893 25.4132 19.8893C27.0486 19.8893 28.4338 20.4599 29.5688 21.601C30.7038 22.7421 31.2713 24.1304 31.2713 25.7658C31.2713 27.4012 30.7038 28.7834 29.5688 29.9123C28.4338 31.0412 27.0486 31.6057 25.4132 31.6057V31.6057ZM25.4498 30.5073C26.7435 30.5073 27.848 30.0466 28.7633 29.1251C29.6787 28.2037 30.1363 27.09 30.1363 25.7841C30.1363 25.5156 30.1119 25.2593 30.0631 25.0152C30.0143 24.7712 29.9411 24.5088 29.8434 24.228C29.4163 24.2891 29.102 24.3287 28.9006 24.347C28.6992 24.3654 28.5253 24.3745 28.3789 24.3745C27.61 24.3745 26.8502 24.167 26.0997 23.7521C25.3491 23.3371 24.6687 22.7574 24.0585 22.0129C23.7411 22.855 23.2865 23.5843 22.6946 24.2006C22.1027 24.8169 21.4101 25.2471 20.6168 25.4912C20.6168 26.968 21.0897 28.1732 22.0355 29.1068C22.9814 30.0405 24.1195 30.5073 25.4498 30.5073V30.5073ZM20.9463 24.1548C21.4223 23.8741 21.8403 23.5171 22.2003 23.0839C22.5603 22.6506 22.8258 22.1716 22.9967 21.6468C22.5085 21.9275 22.0874 22.2845 21.7335 22.7177C21.3796 23.151 21.1172 23.63 20.9463 24.1548ZM23.7655 27.0473C23.5581 27.0473 23.3842 26.9771 23.2438 26.8368C23.1034 26.6964 23.0333 26.5225 23.0333 26.315C23.0333 26.1076 23.1034 25.9336 23.2438 25.7933C23.3842 25.6529 23.5581 25.5828 23.7655 25.5828C23.973 25.5828 24.1469 25.6529 24.2873 25.7933C24.4276 25.9336 24.4978 26.1076 24.4978 26.315C24.4978 26.5225 24.4276 26.6964 24.2873 26.8368C24.1469 26.9771 23.973 27.0473 23.7655 27.0473ZM28.5802 23.2761C28.7389 23.2761 28.8823 23.27 29.0105 23.2578C29.1386 23.2456 29.2698 23.2273 29.404 23.2029C29.0013 22.5316 28.4338 21.9946 27.7015 21.5919C26.9692 21.1891 26.2004 20.9877 25.3949 20.9877C25.2972 20.9877 25.2057 20.9908 25.1202 20.9969C25.0348 21.003 24.925 21.0183 24.7907 21.0427C25.2057 21.7383 25.7518 22.2845 26.4292 22.6811C27.1065 23.0778 27.8236 23.2761 28.5802 23.2761ZM27.0425 27.0656C26.835 27.0656 26.658 26.9924 26.5116 26.8459C26.3651 26.6995 26.2919 26.5225 26.2919 26.315C26.2919 26.1076 26.3651 25.9306 26.5116 25.7841C26.658 25.6377 26.835 25.5644 27.0425 25.5644C27.2499 25.5644 27.4239 25.6377 27.5642 25.7841C27.7046 25.9306 27.7747 26.1076 27.7747 26.315C27.7747 26.5225 27.7046 26.6995 27.5642 26.8459C27.4239 26.9924 27.2499 27.0656 27.0425 27.0656ZM17.3398 21.2257V18.8092C17.3398 18.5163 17.4497 18.26 17.6694 18.0403C17.889 17.8207 18.1453 17.7108 18.4383 17.7108H20.8548V18.8092H18.4383V21.2257H17.3398ZM20.8548 33.8208H18.4383C18.1453 33.8208 17.889 33.711 17.6694 33.4913C17.4497 33.2716 17.3398 33.0153 17.3398 32.7224V30.3059H18.4383V32.7224H20.8548V33.8208ZM29.9349 33.8208V32.7224H32.3514V30.3059H33.4499V32.7224C33.4499 33.0153 33.34 33.2716 33.1203 33.4913C32.9007 33.711 32.6444 33.8208 32.3514 33.8208H29.9349ZM32.3514 21.2257V18.8092H29.9349V17.7108H32.3514C32.6444 17.7108 32.9007 17.8207 33.1203 18.0403C33.34 18.26 33.4499 18.5163 33.4499 18.8092V21.2257H32.3514Z" fill="white"/>
</svg>
