<svg width="51" height="51" viewBox="0 0 51 51" fill="none" xmlns="http://www.w3.org/2000/svg">
<path d="M16.3555 32.4222V30.3571C16.3555 29.8592 16.48 29.4015 16.7289 28.9841C16.9779 28.5667 17.3514 28.2482 17.8493 28.0285C18.9038 27.5599 19.8704 27.223 20.7491 27.018C21.6278 26.8129 22.5066 26.7104 23.3853 26.7104C23.81 26.7104 24.2604 26.7361 24.7363 26.7873C25.2123 26.8386 25.6993 26.9301 26.1972 27.0619L25.1208 28.1384C24.8279 28.1091 24.5386 28.0834 24.253 28.0615C23.9675 28.0395 23.6782 28.0285 23.3853 28.0285C22.5359 28.0285 21.7633 28.1054 21.0676 28.2592C20.372 28.413 19.475 28.7315 18.3765 29.2148C18.1276 29.332 17.9482 29.5004 17.8383 29.7201C17.7285 29.9397 17.6736 30.1521 17.6736 30.3571V31.1041H24.6814L25.9995 32.4222H16.3555ZM28.3281 32.7736L25.2306 29.6761L26.1533 28.7535L28.3281 30.9283L33.0074 26.2491L33.93 27.1718L28.3281 32.7736ZM23.3853 25.3484C22.4187 25.3484 21.6278 25.0408 21.0127 24.4257C20.3976 23.8106 20.0901 23.0198 20.0901 22.0532C20.0901 21.0866 20.3976 20.2957 21.0127 19.6806C21.6278 19.0655 22.4187 18.7579 23.3853 18.7579C24.3519 18.7579 25.1427 19.0655 25.7579 19.6806C26.373 20.2957 26.6805 21.0866 26.6805 22.0532C26.6805 23.0198 26.373 23.8106 25.7579 24.4257C25.1427 25.0408 24.3519 25.3484 23.3853 25.3484ZM23.3853 24.0303C23.9565 24.0303 24.4288 23.8436 24.8022 23.4701C25.1757 23.0967 25.3624 22.6243 25.3624 22.0532C25.3624 21.482 25.1757 21.0097 24.8022 20.6362C24.4288 20.2628 23.9565 20.076 23.3853 20.076C22.8141 20.076 22.3418 20.2628 21.9683 20.6362C21.5949 21.0097 21.4082 21.482 21.4082 22.0532C21.4082 22.6243 21.5949 23.0967 21.9683 23.4701C22.3418 23.8436 22.8141 24.0303 23.3853 24.0303Z" fill="white"/>
</svg>
