<svg width="51" height="51" viewBox="0 0 51 51" fill="none" xmlns="http://www.w3.org/2000/svg">
<path fill-rule="evenodd" clip-rule="evenodd" d="M28.5273 17.5146C28.5273 17.2185 28.7673 16.9785 29.0634 16.9785H31.2639C33.0153 16.9785 34.4347 18.3978 34.4347 20.1492V22.3469C34.4347 22.6429 34.1947 22.8829 33.8986 22.8829C33.6026 22.8829 33.3626 22.6429 33.3626 22.3469V20.1492C33.3626 18.9899 32.4232 18.0506 31.2639 18.0506H29.0634C28.7673 18.0506 28.5273 17.8106 28.5273 17.5146Z" fill="white"/>
<path fill-rule="evenodd" clip-rule="evenodd" d="M33.8986 28.6459C34.1947 28.6459 34.4347 28.8859 34.4347 29.182V31.3824C34.4347 33.1338 33.0153 34.553 31.2639 34.553H29.0634C28.7673 34.553 28.5273 34.313 28.5273 34.017C28.5273 33.721 28.7673 33.481 29.0634 33.481H31.2639C32.4232 33.481 33.3626 32.5417 33.3626 31.3824V29.182C33.3626 28.8859 33.6026 28.6459 33.8986 28.6459Z" fill="white"/>
<path fill-rule="evenodd" clip-rule="evenodd" d="M17.3954 28.6459C17.6915 28.6459 17.9315 28.8859 17.9315 29.182V31.3824C17.9315 32.5417 18.8708 33.481 20.0301 33.481H22.2306C22.5267 33.481 22.7667 33.721 22.7667 34.017C22.7667 34.313 22.5267 34.553 22.2306 34.553H20.0301C18.2787 34.553 16.8594 33.1338 16.8594 31.3824V29.182C16.8594 28.8859 17.0994 28.6459 17.3954 28.6459Z" fill="white"/>
<path fill-rule="evenodd" clip-rule="evenodd" d="M16.8594 20.1492C16.8594 18.3978 18.2787 16.9785 20.0301 16.9785H22.228C22.524 16.9785 22.764 17.2185 22.764 17.5146C22.764 17.8106 22.524 18.0506 22.228 18.0506H20.0301C18.8708 18.0506 17.9315 18.9899 17.9315 20.1492V22.3496C17.9315 22.6456 17.6915 22.8856 17.3954 22.8856C17.0994 22.8856 16.8594 22.6456 16.8594 22.3496V20.1492Z" fill="white"/>
<path fill-rule="evenodd" clip-rule="evenodd" d="M21.4911 21.7115C21.7872 21.7115 22.0272 21.9515 22.0272 22.2476V24.2711C22.0272 24.5672 21.7872 24.8071 21.4911 24.8071C21.1951 24.8071 20.9551 24.5672 20.9551 24.2711V22.2476C20.9551 21.9515 21.1951 21.7115 21.4911 21.7115Z" fill="white"/>
<path fill-rule="evenodd" clip-rule="evenodd" d="M29.7997 21.7116C30.0958 21.7116 30.3358 21.9516 30.3358 22.2476V24.2712C30.3358 24.5672 30.0958 24.8072 29.7997 24.8072C29.5037 24.8072 29.2637 24.5672 29.2637 24.2712V22.2476C29.2637 21.9516 29.5037 21.7116 29.7997 21.7116Z" fill="white"/>
<path fill-rule="evenodd" clip-rule="evenodd" d="M25.6373 21.7116C25.9334 21.7116 26.1734 21.9516 26.1734 22.2476V26.3751C26.1734 27.1794 25.5216 27.8358 24.7126 27.8358H24.1337C23.8377 27.8358 23.5977 27.5958 23.5977 27.2998C23.5977 27.0037 23.8377 26.7637 24.1337 26.7637H24.7126C24.9275 26.7637 25.1013 26.5893 25.1013 26.3751V22.2476C25.1013 21.9516 25.3413 21.7116 25.6373 21.7116Z" fill="white"/>
<path fill-rule="evenodd" clip-rule="evenodd" d="M22.5574 29.3857C22.6988 29.1256 23.0243 29.0294 23.2844 29.1709C24.8696 30.0328 26.4217 30.0328 28.0068 29.1709C28.2669 29.0294 28.5924 29.1256 28.7338 29.3857C28.8753 29.6458 28.7791 29.9713 28.519 30.1127C26.6145 31.1483 24.6768 31.1483 22.7723 30.1127C22.5122 29.9713 22.416 29.6458 22.5574 29.3857Z" fill="white"/>
</svg>
