<svg width="50" height="51" viewBox="0 0 50 51" fill="none" xmlns="http://www.w3.org/2000/svg">
<path d="M5.64062 39.2993V35.2022C5.64062 34.1852 5.90214 33.2626 6.42517 32.4345C6.9482 31.6063 7.67464 30.9889 8.60447 30.5821C10.7257 29.6522 12.6362 28.9839 14.336 28.5771C16.0359 28.1703 17.7866 27.9669 19.5881 27.9669C21.3897 27.9669 23.1331 28.1703 24.8185 28.5771C26.5038 28.9839 28.407 29.6522 30.5282 30.5821C31.4581 30.9889 32.1918 31.6063 32.7293 32.4345C33.2669 33.2626 33.5357 34.1852 33.5357 35.2022V39.2993H5.64062ZM36.1508 39.2993V35.2022C36.1508 33.3716 35.6859 31.8678 34.7561 30.691C33.8262 29.5142 32.6058 28.5626 31.0948 27.8361C33.0998 28.0686 34.9885 28.41 36.761 28.8604C38.5335 29.3108 39.9719 29.8266 41.076 30.4077C42.0349 30.9598 42.7904 31.6427 43.3425 32.4563C43.8946 33.2699 44.1706 34.1852 44.1706 35.2022V39.2993H36.1508ZM19.5881 25.3082C17.6704 25.3082 16.1013 24.698 14.8809 23.4775C13.6604 22.2571 13.0502 20.688 13.0502 18.7703C13.0502 16.8525 13.6604 15.2834 14.8809 14.063C16.1013 12.8426 17.6704 12.2324 19.5881 12.2324C21.5059 12.2324 23.075 12.8426 24.2954 14.063C25.5158 15.2834 26.126 16.8525 26.126 18.7703C26.126 20.688 25.5158 22.2571 24.2954 23.4775C23.075 24.698 21.5059 25.3082 19.5881 25.3082V25.3082ZM35.2791 18.7703C35.2791 20.688 34.6689 22.2571 33.4485 23.4775C32.2281 24.698 30.659 25.3082 28.7412 25.3082C28.4216 25.3082 28.0656 25.2864 27.6733 25.2428C27.2811 25.1992 26.9251 25.1193 26.6055 25.0031C27.3029 24.2766 27.8332 23.3831 28.1964 22.3225C28.5596 21.2619 28.7412 20.0778 28.7412 18.7703C28.7412 17.4627 28.5596 16.3077 28.1964 15.3052C27.8332 14.3027 27.3029 13.3801 26.6055 12.5375C26.9251 12.4503 27.2811 12.3776 27.6733 12.3195C28.0656 12.2614 28.4216 12.2324 28.7412 12.2324C30.659 12.2324 32.2281 12.8426 33.4485 14.063C34.6689 15.2834 35.2791 16.8525 35.2791 18.7703V18.7703ZM8.25578 36.6841H30.9205V35.2022C30.9205 34.7373 30.7825 34.2869 30.5064 33.851C30.2304 33.4152 29.889 33.11 29.4822 32.9357C27.39 32.0059 25.6321 31.3811 24.2083 31.0615C22.7844 30.7419 21.2444 30.5821 19.5881 30.5821C17.9319 30.5821 16.3846 30.7419 14.9462 31.0615C13.5079 31.3811 11.7427 32.0059 9.65054 32.9357C9.24373 33.11 8.90957 33.4152 8.64806 33.851C8.38654 34.2869 8.25578 34.7373 8.25578 35.2022V36.6841ZM19.5881 22.693C20.7214 22.693 21.6585 22.3225 22.3994 21.5816C23.1404 20.8406 23.5109 19.9035 23.5109 18.7703C23.5109 17.637 23.1404 16.6999 22.3994 15.959C21.6585 15.218 20.7214 14.8475 19.5881 14.8475C18.4549 14.8475 17.5178 15.218 16.7768 15.959C16.0359 16.6999 15.6654 17.637 15.6654 18.7703C15.6654 19.9035 16.0359 20.8406 16.7768 21.5816C17.5178 22.3225 18.4549 22.693 19.5881 22.693Z" fill="white"/>
</svg>
