<svg width="51" height="51" viewBox="0 0 51 51" fill="none" xmlns="http://www.w3.org/2000/svg">
<path fill-rule="evenodd" clip-rule="evenodd" d="M28.14 28.2762C27.4525 28.9637 26.6157 29.3075 25.6296 29.3075C24.6434 29.3075 23.8066 28.9637 23.1191 28.2762C22.4316 27.5887 22.0879 26.7519 22.0879 25.7658C22.0879 24.7797 22.4316 23.9429 23.1191 23.2554C23.8066 22.5679 24.6434 22.2241 25.6296 22.2241C26.6157 22.2241 27.4525 22.5679 28.14 23.2554C28.8275 23.9429 29.1712 24.7797 29.1712 25.7658C29.1712 26.7519 28.8275 27.5887 28.14 28.2762ZM20.1296 30.2866C21.7684 31.4394 23.6018 32.0158 25.6296 32.0158C27.6573 32.0158 29.4907 31.4394 31.1296 30.2866C32.7684 29.1339 33.9907 27.6269 34.7962 25.7658C33.9907 23.9047 32.7684 22.3978 31.1296 21.245C29.4907 20.0922 27.6573 19.5158 25.6296 19.5158C23.6018 19.5158 21.7684 20.0922 20.1296 21.245C18.4907 22.3978 17.2684 23.9047 16.4629 25.7658C17.2684 27.6269 18.4907 29.1339 20.1296 30.2866ZM30.265 29.4012C28.8553 30.3109 27.3101 30.7658 25.6296 30.7658C23.949 30.7658 22.4039 30.3109 20.9941 29.4012C19.5844 28.4915 18.5046 27.2797 17.7546 25.7658C18.5046 24.2519 19.5844 23.0401 20.9941 22.1304C22.4039 21.2207 23.949 20.7658 25.6296 20.7658C27.3101 20.7658 28.8553 21.2207 30.265 22.1304C31.6747 23.0401 32.7476 24.2519 33.4837 25.7658C32.7476 27.2797 31.6747 28.4915 30.265 29.4012Z" fill="#BABABA"/>
</svg>
