<svg width="51" height="51" viewBox="0 0 51 51" fill="none" xmlns="http://www.w3.org/2000/svg">
<circle cx="25.4015" cy="25.7658" r="10.087" fill="#6D6D6D"/>
<path d="M25.4008 25.4789C24.6302 25.4789 23.9998 25.1959 23.5095 24.6299C23.0191 24.0639 22.774 23.3362 22.774 22.4468C22.774 21.5574 23.0191 20.8297 23.5095 20.2637C23.9998 19.6977 24.6302 19.4147 25.4008 19.4147C26.1713 19.4147 26.8018 19.6977 27.2921 20.2637C27.7825 20.8297 28.0276 21.5574 28.0276 22.4468C28.0276 23.3362 27.7825 24.0639 27.2921 24.6299C26.8018 25.1959 26.1713 25.4789 25.4008 25.4789V25.4789ZM19.7969 31.9675V30.0674C19.7969 29.5553 19.9078 29.1174 20.1296 28.7535C20.3514 28.3897 20.6375 28.1134 20.9877 27.9247C21.7699 27.5205 22.52 27.2173 23.238 27.0151C23.956 26.813 24.6769 26.7119 25.4008 26.7119C26.1246 26.7119 26.8426 26.8164 27.5548 27.0252C28.267 27.2341 29.0141 27.5339 29.7964 27.9247C30.1583 28.1134 30.4501 28.3897 30.672 28.7535C30.8938 29.1174 31.0047 29.5553 31.0047 30.0674V31.9675H19.7969Z" fill="white"/>
</svg>
