<svg width="51" height="51" viewBox="0 0 51 51" fill="none" xmlns="http://www.w3.org/2000/svg">
<path d="M17.8218 31.5548H39.7975L32.6596 21.944L26.8706 29.5315L23.0487 24.6418L17.8218 31.5548ZM13.0444 41.5029C12.1452 41.5029 11.3583 41.1657 10.6839 40.4912C10.0094 39.8168 9.6722 39.0299 9.6722 38.1307V6.65653C9.6722 5.75727 10.0094 4.97042 10.6839 4.29597C11.3583 3.62152 12.1452 3.2843 13.0444 3.2843H44.5186C45.4178 3.2843 46.2047 3.62152 46.8791 4.29597C47.5536 4.97042 47.8908 5.75727 47.8908 6.65653V38.1307C47.8908 39.0299 47.5536 39.8168 46.8791 40.4912C46.2047 41.1657 45.4178 41.5029 44.5186 41.5029H13.0444ZM13.0444 38.1307H44.5186V6.65653H13.0444V38.1307ZM6.29997 48.2474C5.4007 48.2474 4.61385 47.9102 3.9394 47.2357C3.26496 46.5613 2.92773 45.7744 2.92773 44.8751V10.0288H6.29997V44.8751H41.1464V48.2474H6.29997ZM13.0444 6.65653V38.1307V6.65653Z" fill="#9F9F9F"/>
</svg>
