<svg width="50" height="51" viewBox="0 0 50 51" fill="none" xmlns="http://www.w3.org/2000/svg">
<path d="M16.4147 33.5386V32.549H18.3345C17.5428 31.5858 16.893 30.527 16.385 29.3725C15.877 28.218 15.623 27.0008 15.623 25.7209C15.623 24.441 15.8671 23.2239 16.3553 22.0693C16.8435 20.9148 17.4835 19.856 18.2751 18.8928H16.4147V17.9032H20.1751V21.6636H19.1855V19.4074C18.3939 20.3442 17.7671 21.3272 17.3053 22.3563C16.8435 23.3855 16.6126 24.507 16.6126 25.7209C16.6126 26.9348 16.8435 28.053 17.3053 29.0756C17.7671 30.0982 18.3939 31.0844 19.1855 32.0344V29.7782H20.1751V33.5386H16.4147ZM27.2803 33.5188L21.897 31.4407L22.4512 29.9365C22.5435 29.699 22.6755 29.4912 22.847 29.3131C23.0185 29.135 23.2296 29.0195 23.4803 28.9667L25.0439 28.6501L22.4116 22.7719C22.1873 22.2706 22.1741 21.7659 22.372 21.2579C22.5699 20.7499 22.9196 20.3838 23.421 20.1594C23.9224 19.9351 24.427 19.9186 24.935 20.11C25.443 20.3013 25.8092 20.6476 26.0335 21.149L27.4189 24.2563L27.8939 24.0584C27.9467 24.032 28.006 24.0188 28.072 24.0188H28.2699L31.5158 24.1376C31.8588 24.1508 32.1623 24.2695 32.4262 24.4938C32.6901 24.7181 32.8682 25.0018 32.9605 25.3449L34.0689 29.5803C34.1744 29.9629 34.1382 30.3258 33.96 30.6688C33.7819 31.0119 33.5147 31.2626 33.1585 31.4209L28.5272 33.4792C28.3293 33.5716 28.1215 33.6211 27.9038 33.6277C27.6861 33.6343 27.4783 33.598 27.2803 33.5188ZM27.8939 32.4501L32.9803 30.1938L31.7533 25.3449L27.7158 25.1667L26.7262 25.6219L24.9449 21.6438C24.8394 21.4195 24.6942 21.2678 24.5095 21.1886C24.3248 21.1094 24.1203 21.1226 23.896 21.2282C23.6717 21.3338 23.5232 21.4789 23.4507 21.6636C23.3781 21.8483 23.3946 22.0529 23.5001 22.2772L26.7064 29.5011L23.6585 30.1344L23.4408 30.748L27.8939 32.4501Z" fill="#999999"/>
</svg>
