<svg width="51" height="51" viewBox="0 0 51 51" fill="none" xmlns="http://www.w3.org/2000/svg">
<path d="M31.1895 25.7659C31.1895 28.8321 28.7038 31.3177 25.6377 31.3177C22.5715 31.3177 20.0859 28.8321 20.0859 25.7659C20.0859 22.6998 22.5715 20.2142 25.6377 20.2142C28.7038 20.2142 31.1895 22.6998 31.1895 25.7659Z" fill="white"/>
<path d="M25.3913 27.138H26.1907L26.3656 24.0651L26.4073 22.9075H25.1748L25.2164 24.0651L25.3913 27.138ZM25.791 29.3531C26.2241 29.3531 26.5572 29.0034 26.5572 28.5537C26.5572 28.0957 26.2241 27.7542 25.791 27.7542C25.358 27.7542 25.0332 28.0957 25.0332 28.5537C25.0332 29.0034 25.358 29.3531 25.791 29.3531Z" fill="#FF5500"/>
</svg>
