<svg width="51" height="51" viewBox="0 0 51 51" fill="none" xmlns="http://www.w3.org/2000/svg">
<path d="M25.6545 25.3082C23.7368 25.3082 22.1677 24.698 20.9473 23.4775C19.7269 22.2571 19.1166 20.688 19.1166 18.7703C19.1166 16.8525 19.7269 15.2834 20.9473 14.063C22.1677 12.8426 23.7368 12.2324 25.6545 12.2324C27.5723 12.2324 29.1414 12.8426 30.3618 14.063C31.5822 15.2834 32.1924 16.8525 32.1924 18.7703C32.1924 20.688 31.5822 22.2571 30.3618 23.4775C29.1414 24.698 27.5723 25.3082 25.6545 25.3082V25.3082ZM11.707 39.2993V35.2022C11.707 34.098 11.9831 33.1536 12.5352 32.3691C13.0873 31.5845 13.7992 30.9889 14.6709 30.5821C16.6177 29.7103 18.4847 29.0566 20.2717 28.6207C22.0587 28.1848 23.853 27.9669 25.6545 27.9669C27.4561 27.9669 29.2431 28.1921 31.0156 28.6425C32.7881 29.0929 34.6478 29.7394 36.5946 30.5821C37.4954 30.9889 38.2218 31.5845 38.7739 32.3691C39.326 33.1536 39.6021 34.098 39.6021 35.2022V39.2993H11.707ZM14.3222 36.6841H36.9869V35.2022C36.9869 34.7373 36.8489 34.2941 36.5728 33.8728C36.2968 33.4515 35.9554 33.1391 35.5486 32.9357C33.6889 32.0349 31.989 31.4175 30.449 31.0833C28.909 30.7491 27.3108 30.5821 25.6545 30.5821C23.9983 30.5821 22.3856 30.7491 20.8165 31.0833C19.2474 31.4175 17.5476 32.0349 15.7169 32.9357C15.3101 33.1391 14.976 33.4515 14.7145 33.8728C14.4529 34.2941 14.3222 34.7373 14.3222 35.2022V36.6841ZM25.6545 22.693C26.7878 22.693 27.7249 22.3225 28.4658 21.5816C29.2068 20.8406 29.5773 19.9035 29.5773 18.7703C29.5773 17.637 29.2068 16.6999 28.4658 15.959C27.7249 15.218 26.7878 14.8475 25.6545 14.8475C24.5213 14.8475 23.5842 15.218 22.8433 15.959C22.1023 16.6999 21.7318 17.637 21.7318 18.7703C21.7318 19.9035 22.1023 20.8406 22.8433 21.5816C23.5842 22.3225 24.5213 22.693 25.6545 22.693Z" fill="white"/>
</svg>
