<svg width="51" height="51" viewBox="0 0 51 51" fill="none" xmlns="http://www.w3.org/2000/svg">
<path d="M17.2891 21.2241V17.1408H18.3099V19.2658C19.3238 18.3908 20.4523 17.7276 21.6953 17.2762C22.9384 16.8248 24.2335 16.5991 25.5807 16.5991C26.928 16.5991 28.23 16.8248 29.487 17.2762C30.7439 17.7276 31.8863 18.3908 32.9141 19.2658V17.1408H33.9557V21.2241H29.9766V20.2033H32.4766C31.5182 19.37 30.4488 18.7172 29.2682 18.245C28.0877 17.7727 26.8585 17.5366 25.5807 17.5366C24.3168 17.5366 23.1016 17.7727 21.9349 18.245C20.7682 18.7172 19.7057 19.37 18.7474 20.2033H21.2474V21.2241H17.2891ZM24.4141 34.9325C24.178 34.9325 23.9557 34.8873 23.7474 34.797C23.5391 34.7068 23.3585 34.5852 23.2057 34.4325L18.9141 30.1408L20.0807 28.9325C20.2752 28.738 20.4939 28.5887 20.737 28.4845C20.98 28.3804 21.2335 28.363 21.4974 28.4325L23.1224 28.8075V22.0158C23.1224 21.4325 23.3238 20.9394 23.7266 20.5366C24.1293 20.1338 24.6224 19.9325 25.2057 19.9325C25.7891 19.9325 26.2821 20.1338 26.6849 20.5366C27.0877 20.9394 27.2891 21.4325 27.2891 22.0158V25.7658H27.8307C27.9002 25.7658 27.9661 25.7727 28.0286 25.7866C28.0911 25.8005 28.1571 25.8213 28.2266 25.8491L31.2891 27.2241C31.6224 27.3769 31.8689 27.6234 32.0286 27.9637C32.1884 28.304 32.2335 28.6547 32.1641 29.0158L31.4141 33.5575C31.3446 33.9602 31.1502 34.2901 30.8307 34.547C30.5113 34.804 30.1502 34.9325 29.7474 34.9325H24.4141ZM24.2474 33.6825H30.1016L30.9974 28.495L27.1849 26.7658H26.0391V22.0158C26.0391 21.7658 25.9627 21.5644 25.8099 21.4116C25.6571 21.2588 25.4557 21.1825 25.2057 21.1825C24.9557 21.1825 24.7543 21.2588 24.6016 21.4116C24.4488 21.5644 24.3724 21.7658 24.3724 22.0158V30.3283L21.1641 29.6408L20.6849 30.12L24.2474 33.6825ZM24.2474 33.6825H30.1016H24.2474Z" fill="#999999"/>
</svg>
