<svg width="51" height="51" viewBox="0 0 51 51" fill="none" xmlns="http://www.w3.org/2000/svg">
<circle cx="25.3848" cy="26.2658" r="8" fill="#A7A7A7"/>
<path d="M24.5088 28.2418H26.0448C25.8648 26.5498 27.9528 25.9738 27.9528 24.2698C27.9528 22.7338 26.8968 21.9898 25.4568 21.9898C24.4128 21.9898 23.5608 22.4818 22.9368 23.1898L23.9088 24.0778C24.2928 23.6818 24.7128 23.4058 25.2408 23.4058C25.8648 23.4058 26.2608 23.7898 26.2608 24.3898C26.2608 25.5298 24.2208 26.3098 24.5088 28.2418ZM25.2768 31.4338C25.9128 31.4338 26.3808 30.9298 26.3808 30.2818C26.3808 29.6218 25.9128 29.1298 25.2768 29.1298C24.6528 29.1298 24.1848 29.6218 24.1848 30.2818C24.1848 30.9298 24.6528 31.4338 25.2768 31.4338Z" fill="#222222"/>
</svg>
