<svg width="274" height="58" viewBox="0 0 274 58" fill="none" xmlns="http://www.w3.org/2000/svg">
<path d="M17.4807 2.02148H49.935L46.4527 14.912H23.7487L22.2165 20.6605H43.3187L40.1499 32.4013H19.0129L15.078 47.1731H0L10.7252 7.17769C11.5261 4.14668 14.3119 2.02148 17.4459 2.02148H17.4807Z" fill="#F15822"/>
<path d="M62.3361 0H71.5285L59.031 47.1734H44.5366L55.6914 5.16395C56.4833 2.12839 59.2375 0 62.3361 0Z" fill="#F15822"/>
<path d="M76.2484 11.898H90.9737L81.5299 47.1734H66.8047L76.2484 11.898ZM84.6079 0H94.4714L91.953 9.38583H76.7381L77.8574 5.16395C78.6618 2.12839 81.46 0 84.6079 0Z" fill="#F15822"/>
<path d="M137.726 38.8179C137.726 37.3117 137.973 35.7004 138.433 33.8789L141.19 23.6156H136.983L140.059 12.2664H144.266L145.291 8.55335C146.139 5.50588 148.932 3.36914 152.113 3.36914H161.552L159.113 12.2664H167.349L164.274 23.6156H156.037L154.022 31.2168C153.704 32.3727 153.563 33.2134 153.563 33.949C153.563 35.4552 154.482 36.2258 156.567 36.2258C157.734 36.2258 158.794 36.0157 160.88 35.4552L157.663 47.47C155.118 48.1355 152.608 48.5208 150.134 48.5208C141.756 48.5208 137.69 45.3332 137.69 38.853L137.726 38.8179Z" fill="#F15822"/>
<path d="M174.804 12.4019H189.494L180.05 47.1733H165.325L174.804 12.4019ZM183.128 0.673828H192.992L190.474 9.92557H175.259L176.378 5.76401C177.182 2.77181 179.98 0.673828 183.128 0.673828Z" fill="#F15822"/>
<path d="M190.292 32.0515C190.292 21.2468 199.078 11.4561 211.254 11.4561C222.288 11.4561 228.756 18.6942 228.756 27.9254C228.756 38.7302 219.97 48.5209 207.795 48.5209C196.761 48.5209 190.292 41.2827 190.292 32.0515ZM215.024 28.5548C215.024 25.5826 213.156 23.4497 210.354 23.4497C206.688 23.4497 204.024 27.1911 204.024 31.4221C204.024 34.3943 205.892 36.5272 208.694 36.5272C212.361 36.5272 215.024 32.7858 215.024 28.5548Z" fill="#F15822"/>
<path d="M240.122 12.1299H254.687C258.251 12.1299 259.496 12.2339 263.821 12.7191C269.08 13.3084 273.75 16.5319 273.958 22.0085C274.027 23.8109 273.716 25.7866 273.127 27.901L268.007 47.173H253.442L258.112 29.7034C258.354 28.8022 258.493 27.7624 258.493 27.0691C258.493 25.1974 257.524 23.9842 255.414 23.9842C252.542 23.9842 250.985 25.9253 249.982 29.7034L246.695 42.043C245.899 45.0586 243.132 47.173 240.018 47.173H230.78L240.156 12.1299H240.122Z" fill="#F15822"/>
<path d="M98.58 12.1644H113.304C115.682 12.1644 117.746 12.2334 121.418 12.9238C127.749 14.0975 132.26 18.6196 132.26 24.9367C132.26 37.6744 124.496 44.2331 114.144 44.2331C109.107 44.2331 109.422 43.6808 105.085 42.5762L102.462 52.1726C101.623 55.1759 98.8598 57.2815 95.7121 57.2815H86.374L98.615 12.1299L98.58 12.1644ZM119.669 26.6281C119.669 23.763 117.746 21.8644 115.158 21.8644C111.311 21.8644 108.548 25.4545 108.548 29.3897C108.548 32.2548 110.471 34.1534 113.059 34.1534C116.907 34.1534 119.669 30.5634 119.669 26.6281Z" fill="#F15822"/>
</svg>
